<svg width="600" height="450" viewBox="0 0 800 600" fill="none" xmlns="http://www.w3.org/2000/svg" data-reactroot="">
<g opacity="0.5" filter="url(#filter0_i)">
<path d="M103.023 438.532C103.023 264.788 243.814 123.997 417.559 123.997C591.303 123.997 732.094 264.788 732.094 438.532" fill="#B5CDFB"></path>
</g>
<path opacity="0.9" d="M210.691 470.682H765.104V498.19H210.691V470.682Z" fill="#B5CDFB"></path>
<g opacity="0.9" filter="url(#filter1_i)">
<path d="M151.092 433.76L200.749 398.42C207.567 391.375 216.999 387.397 226.771 387.397H687.211C699.028 387.397 710.164 393.193 716.869 402.852L749.595 433.76H151.092Z" fill="#2249B3"></path>
</g>
<path fill-rule="evenodd" clip-rule="evenodd" d="M72.6714 441.373C72.6714 439.861 73.8972 438.636 75.4091 438.636H119.385C120.897 438.636 122.123 439.861 122.123 441.373C122.123 442.885 120.897 444.111 119.385 444.111H75.4091C73.8972 444.111 72.6714 442.885 72.6714 441.373ZM128.804 441.373C128.804 439.861 130.03 438.636 131.542 438.636H778.453C779.965 438.636 781.19 439.861 781.19 441.373C781.19 442.885 779.965 444.111 778.453 444.111H131.542C130.03 444.111 128.804 442.885 128.804 441.373ZM37.5697 438.636C36.0577 438.636 34.832 439.862 34.832 441.374C34.832 442.886 36.0577 444.112 37.5697 444.112H59.5008C61.0128 444.112 62.2385 442.886 62.2385 441.374C62.2385 439.862 61.0128 438.636 59.5008 438.636H37.5697Z" fill="#2249B3"></path>
<path d="M411.864 170.642C417.458 169.491 420.793 162.727 419.312 155.535C417.832 148.343 412.097 143.446 406.504 144.597C400.91 145.748 397.575 152.512 399.055 159.704C400.536 166.896 406.27 171.793 411.864 170.642Z" fill="#F5BF00"></path>
<path fill-rule="evenodd" clip-rule="evenodd" d="M409.567 152.213C410.176 152.004 410.839 152.327 411.049 152.935L412.531 157.233L411.566 157.671L411.561 157.674L411.536 157.685C411.513 157.696 411.477 157.713 411.431 157.736C411.338 157.781 411.203 157.848 411.039 157.934C410.71 158.106 410.279 158.348 409.855 158.631C409.422 158.92 409.04 159.222 408.778 159.507C408.527 159.782 408.501 159.915 408.499 159.915C408.499 159.915 408.499 159.915 408.499 159.915C408.499 159.913 408.499 159.91 408.499 159.906M408.499 159.915C408.501 160.538 408.667 160.822 408.789 160.959C408.925 161.111 409.138 161.228 409.45 161.294C409.765 161.361 410.107 161.36 410.392 161.334C410.53 161.321 410.643 161.304 410.718 161.291C410.756 161.284 410.784 161.278 410.799 161.275L410.814 161.272C411.438 161.124 412.065 161.507 412.216 162.131C412.368 162.757 411.983 163.387 411.358 163.538L411.094 162.451C411.358 163.538 411.357 163.539 411.357 163.539L411.356 163.539L411.353 163.54L411.347 163.541L411.331 163.545C411.319 163.548 411.303 163.551 411.283 163.555C411.244 163.564 411.191 163.574 411.126 163.586C410.996 163.609 410.817 163.636 410.603 163.655C410.185 163.693 409.59 163.706 408.967 163.574C408.341 163.442 407.617 163.146 407.05 162.51C406.469 161.86 406.168 160.981 406.168 159.906C406.168 159.065 406.646 158.384 407.06 157.932C407.502 157.45 408.057 157.028 408.562 156.692C408.946 156.436 409.327 156.212 409.651 156.033L408.845 153.695C408.635 153.087 408.959 152.423 409.567 152.213" fill="#333333"></path>
<path d="M506.201 159.712C507.681 152.52 504.347 145.756 498.753 144.605C493.159 143.454 487.424 148.351 485.944 155.543C484.464 162.735 487.798 169.499 493.392 170.65C498.986 171.801 504.721 166.904 506.201 159.712Z" fill="#F5BF00"></path>
<path d="M749.595 433.76H151.092V443.419H749.595V433.76Z" fill="#2249B3"></path>
<path fill-rule="evenodd" clip-rule="evenodd" d="M376.333 228.5C391.102 233.534 398.995 249.587 393.961 264.357L365.467 348.112C399.595 354.782 396.184 360.699 393.961 373.609C391.313 388.987 367.7 398.419 352.323 395.771L335.253 392.832C313.757 389.235 297.95 378.768 304.037 358.846L304.169 358.414L340.476 246.128C345.509 231.358 361.563 223.466 376.333 228.5Z" fill="#2249B3"></path>
<path fill-rule="evenodd" clip-rule="evenodd" d="M534.472 229.138C549.58 225.238 564.99 234.324 568.89 249.432L602.558 357.957L602.584 358.062C607.134 376.26 587.838 386.484 568.89 392.881L564.643 394.334C549.879 399.385 533.816 391.511 528.765 376.747C525.301 366.619 537.482 365.465 544.233 358.088L514.177 263.556C510.277 248.448 519.363 233.038 534.472 229.138Z" fill="#2249B3"></path>
<path d="M473.922 204.585H432.673C426.083 204.585 355.434 229.564 355.434 229.564L377.334 399.556H533.011L547.631 228.525C547.517 228.525 480.172 204.585 473.922 204.585Z" fill="#2249B3"></path>
<path d="M348.732 372.619C345.825 378.168 356.048 388.363 359.792 391.776L415.976 388.345L424.192 378.574C414.834 369.766 395.081 350.806 389.771 350.149C370.007 347.707 352.365 365.683 348.732 372.619Z" fill="#D7A441"></path>
<g filter="url(#filter2_d)">
<path d="M639.488 397.408C639.488 368.074 663.269 344.293 692.604 344.293C721.938 344.293 745.719 368.074 745.719 397.408H639.488Z" fill="#B5CDFB"></path>
</g>
<path d="M116.23 457.878C116.23 487.213 92.4499 510.993 63.1152 510.993C33.7804 510.993 9.99985 487.213 9.99984 457.878L116.23 457.878Z" fill="#75E0E6"></path>
<path d="M590.396 400.92L319.041 400.693L330.632 390.011C332.563 388.193 335.063 387.284 337.79 387.284H571.533C574.146 387.284 576.646 388.307 578.578 390.011L590.396 400.92Z" fill="white"></path>
<path d="M586.191 415.693H322.79C318.359 415.693 314.836 412.17 314.836 407.738C314.836 403.307 318.359 399.784 322.79 399.784H586.304C590.736 399.784 594.259 403.307 594.259 407.738C594.145 412.057 590.622 415.693 586.191 415.693Z" fill="#75E0E6"></path>
<path d="M350.513 392.171H345.513C343.922 392.171 342.559 390.807 342.559 389.216C342.559 387.625 343.922 386.262 345.513 386.262H350.513C352.104 386.262 353.467 387.625 353.467 389.216C353.467 390.807 352.217 392.171 350.513 392.171Z" fill="#75E0E6"></path>
<path d="M366.878 392.171H361.878C360.287 392.171 358.924 390.807 358.924 389.216C358.924 387.625 360.287 386.262 361.878 386.262H366.878C368.469 386.262 369.833 387.625 369.833 389.216C369.719 390.807 368.469 392.171 366.878 392.171Z" fill="#75E0E6"></path>
<path d="M383.128 392.171H378.128C376.537 392.171 375.174 390.807 375.174 389.216C375.174 387.625 376.537 386.262 378.128 386.262H383.128C384.719 386.262 386.083 387.625 386.083 389.216C386.083 390.807 384.719 392.171 383.128 392.171Z" fill="#75E0E6"></path>
<path d="M399.378 392.171H394.378C392.787 392.171 391.424 390.807 391.424 389.216C391.424 387.625 392.787 386.262 394.378 386.262H399.378C400.969 386.262 402.333 387.625 402.333 389.216C402.333 390.807 400.969 392.171 399.378 392.171Z" fill="#75E0E6"></path>
<path d="M415.624 392.171H410.624C409.034 392.171 407.67 390.807 407.67 389.216C407.67 387.625 409.034 386.262 410.624 386.262H415.624C417.215 386.262 418.579 387.625 418.579 389.216C418.579 390.807 417.329 392.171 415.624 392.171Z" fill="#75E0E6"></path>
<path d="M431.987 392.171H426.988C425.397 392.171 424.033 390.807 424.033 389.216C424.033 387.625 425.397 386.262 426.988 386.262H431.987C433.578 386.262 434.942 387.625 434.942 389.216C434.828 390.807 433.578 392.171 431.987 392.171Z" fill="#75E0E6"></path>
<path d="M448.239 392.171H443.24C441.649 392.171 440.285 390.807 440.285 389.216C440.285 387.625 441.649 386.262 443.24 386.262H448.239C449.83 386.262 451.194 387.625 451.194 389.216C451.194 390.807 449.83 392.171 448.239 392.171Z" fill="#75E0E6"></path>
<path d="M464.489 392.171H459.49C457.899 392.171 456.535 390.807 456.535 389.216C456.535 387.625 457.899 386.262 459.49 386.262H464.489C466.08 386.262 467.444 387.625 467.444 389.216C467.444 390.807 466.08 392.171 464.489 392.171Z" fill="#75E0E6"></path>
<path d="M480.741 392.171H475.742C474.151 392.171 472.787 390.807 472.787 389.216C472.787 387.625 474.151 386.262 475.742 386.262H480.741C482.332 386.262 483.696 387.625 483.696 389.216C483.696 390.807 482.446 392.171 480.741 392.171Z" fill="#75E0E6"></path>
<path d="M497.105 392.171H492.105C490.514 392.171 489.15 390.807 489.15 389.216C489.15 387.625 490.514 386.262 492.105 386.262H497.105C498.696 386.262 500.059 387.625 500.059 389.216C499.945 390.807 498.696 392.171 497.105 392.171Z" fill="#75E0E6"></path>
<path d="M513.351 392.171H508.351C506.76 392.171 505.396 390.807 505.396 389.216C505.396 387.625 506.76 386.262 508.351 386.262H513.351C514.942 386.262 516.305 387.625 516.305 389.216C516.305 390.807 514.942 392.171 513.351 392.171Z" fill="#75E0E6"></path>
<path d="M529.601 392.171H524.601C523.01 392.171 521.646 390.807 521.646 389.216C521.646 387.625 523.01 386.262 524.601 386.262H529.601C531.192 386.262 532.555 387.625 532.555 389.216C532.555 390.807 531.192 392.171 529.601 392.171Z" fill="#75E0E6"></path>
<path d="M545.853 392.171H540.853C539.262 392.171 537.898 390.807 537.898 389.216C537.898 387.625 539.262 386.262 540.853 386.262H545.853C547.444 386.262 548.807 387.625 548.807 389.216C548.807 390.807 547.557 392.171 545.853 392.171Z" fill="#75E0E6"></path>
<path d="M562.216 392.171H557.216C555.625 392.171 554.262 390.807 554.262 389.216C554.262 387.625 555.625 386.262 557.216 386.262H562.216C563.807 386.262 565.17 387.625 565.17 389.216C565.057 390.807 563.807 392.171 562.216 392.171Z" fill="#75E0E6"></path>
<path d="M345.175 397.057H340.175C338.584 397.057 337.221 395.694 337.221 394.103C337.221 392.512 338.584 391.148 340.175 391.148H345.175C346.766 391.148 348.129 392.512 348.129 394.103C348.016 395.807 346.766 397.057 345.175 397.057Z" fill="#75E0E6"></path>
<path d="M361.425 397.057H356.425C354.834 397.057 353.471 395.694 353.471 394.103C353.471 392.512 354.834 391.148 356.425 391.148H361.425C363.016 391.148 364.379 392.512 364.379 394.103C364.379 395.807 363.016 397.057 361.425 397.057Z" fill="#75E0E6"></path>
<path d="M377.671 397.057H372.671C371.08 397.057 369.717 395.694 369.717 394.103C369.717 392.512 371.08 391.148 372.671 391.148H377.671C379.262 391.148 380.626 392.512 380.626 394.103C380.626 395.807 379.262 397.057 377.671 397.057Z" fill="#75E0E6"></path>
<path d="M393.925 397.057H388.925C387.334 397.057 385.971 395.694 385.971 394.103C385.971 392.512 387.334 391.148 388.925 391.148H393.925C395.516 391.148 396.879 392.512 396.879 394.103C396.879 395.807 395.629 397.057 393.925 397.057Z" fill="#75E0E6"></path>
<path d="M410.286 397.057H405.286C403.696 397.057 402.332 395.694 402.332 394.103C402.332 392.512 403.696 391.148 405.286 391.148H410.286C411.877 391.148 413.241 392.512 413.241 394.103C413.127 395.807 411.877 397.057 410.286 397.057Z" fill="#75E0E6"></path>
<path d="M426.536 397.057H421.536C419.946 397.057 418.582 395.694 418.582 394.103C418.582 392.512 419.946 391.148 421.536 391.148H426.536C428.127 391.148 429.491 392.512 429.491 394.103C429.491 395.807 428.127 397.057 426.536 397.057Z" fill="#75E0E6"></path>
<path d="M442.782 397.057H437.783C436.192 397.057 434.828 395.694 434.828 394.103C434.828 392.512 436.192 391.148 437.783 391.148H442.782C444.373 391.148 445.737 392.512 445.737 394.103C445.737 395.807 444.373 397.057 442.782 397.057Z" fill="#75E0E6"></path>
<path d="M459.034 397.057H454.034C452.444 397.057 451.08 395.694 451.08 394.103C451.08 392.512 452.444 391.148 454.034 391.148H459.034C460.625 391.148 461.989 392.512 461.989 394.103C461.989 395.807 460.739 397.057 459.034 397.057Z" fill="#75E0E6"></path>
<path d="M475.398 397.057H470.398C468.807 397.057 467.443 395.694 467.443 394.103C467.443 392.512 468.807 391.148 470.398 391.148H475.398C476.988 391.148 478.352 392.512 478.352 394.103C478.238 395.807 476.988 397.057 475.398 397.057Z" fill="#75E0E6"></path>
<path d="M491.648 397.057H486.648C485.057 397.057 483.693 395.694 483.693 394.103C483.693 392.512 485.057 391.148 486.648 391.148H491.648C493.238 391.148 494.602 392.512 494.602 394.103C494.602 395.807 493.238 397.057 491.648 397.057Z" fill="#75E0E6"></path>
<path d="M507.9 397.057H502.9C501.309 397.057 499.945 395.694 499.945 394.103C499.945 392.512 501.309 391.148 502.9 391.148H507.9C509.49 391.148 510.854 392.512 510.854 394.103C510.854 395.807 509.49 397.057 507.9 397.057Z" fill="#75E0E6"></path>
<path d="M524.146 397.057H519.146C517.555 397.057 516.191 395.694 516.191 394.103C516.191 392.512 517.555 391.148 519.146 391.148H524.146C525.737 391.148 527.1 392.512 527.1 394.103C527.1 395.807 525.85 397.057 524.146 397.057Z" fill="#75E0E6"></path>
<path d="M540.509 397.057H535.509C533.918 397.057 532.555 395.694 532.555 394.103C532.555 392.512 533.918 391.148 535.509 391.148H540.509C542.1 391.148 543.463 392.512 543.463 394.103C543.35 395.807 542.1 397.057 540.509 397.057Z" fill="#75E0E6"></path>
<path d="M556.759 397.057H551.759C550.168 397.057 548.805 395.694 548.805 394.103C548.805 392.512 550.168 391.148 551.759 391.148H556.759C558.35 391.148 559.713 392.512 559.713 394.103C559.713 395.807 558.35 397.057 556.759 397.057Z" fill="#75E0E6"></path>
<path d="M573.011 397.057H568.011C566.42 397.057 565.057 395.694 565.057 394.103C565.057 392.512 566.42 391.148 568.011 391.148H573.011C574.602 391.148 575.965 392.512 575.965 394.103C575.965 395.807 574.602 397.057 573.011 397.057Z" fill="#75E0E6"></path>
<path d="M291.837 411.945C295.587 411.945 297.86 407.854 295.928 404.672C291.837 397.854 283.542 388.764 268.543 390.014C253.77 391.15 247.748 399.218 245.134 405.24C243.771 408.422 246.157 411.945 249.566 411.945H291.837Z" fill="#205284"></path>
<path d="M480.513 188.882L482.833 227.135C482.833 242.248 468.354 251.394 453.241 251.394C438.128 251.394 424.082 240.508 424.082 225.394L425.969 188.882H480.513Z" fill="#F5BF00"></path>
<path d="M480.51 188.882V204.563C480.51 204.563 471.419 216.51 461.491 217.966C453.151 219.19 442.861 218.869 437.667 213.956C428.493 205.281 425.967 188.882 425.967 188.882H480.51Z" fill="#B58D00"></path>
<path fill-rule="evenodd" clip-rule="evenodd" d="M691.862 368.23C691.862 368.23 691.86 368.231 694.727 370.657C698.345 373.717 695.65 374.913 697.617 373.033C698.479 372.21 700.866 369.974 702.041 369.27C703.278 368.53 704.181 368.296 704.72 368.321C704.969 368.333 705.469 368.369 706.174 369.471C708.532 373.16 709.424 376.565 708.881 378.896C708.464 380.69 705.097 383.134 698.884 384.213L701.938 391.577C709.864 390.2 714.847 386.4 716.197 380.597C717.421 375.331 715.265 369.749 712.502 365.427C710.647 362.523 708.041 360.957 705.069 360.819C702.389 360.694 699.96 361.763 698.184 362.826C696.347 363.926 694.773 365.284 693.696 366.314C693.146 366.839 692.702 367.302 692.389 367.639C692.232 367.808 692.108 367.947 692.019 368.048C691.974 368.099 691.938 368.14 691.912 368.171L691.879 368.209L691.868 368.222L691.862 368.23Z" fill="#75E0E6"></path>
<path fill-rule="evenodd" clip-rule="evenodd" d="M694.723 370.655C691.856 368.23 691.857 368.228 691.857 368.228L691.864 368.221L691.875 368.208L691.908 368.17C691.934 368.139 691.97 368.098 692.015 368.047C692.104 367.946 692.228 367.807 692.385 367.638C692.697 367.3 693.142 366.837 693.691 366.313C694.587 365.457 695.825 364.374 697.272 363.402L700.398 370.51C699.322 371.417 698.16 372.51 697.613 373.032C696.96 373.657 696.821 373.942 696.794 373.932C696.74 373.911 697.139 372.699 694.723 370.655ZM704.033 382.796L706.17 390.518C704.87 390.958 703.456 391.312 701.934 391.576L698.88 384.212C700.899 383.861 702.618 383.366 704.033 382.796Z" fill="#111110" fill-opacity="0.28"></path>
<path d="M414.83 142.179L418.807 174.223C419.148 176.61 419.83 178.996 420.966 181.155L431.42 201.609C433.92 207.518 439.602 211.381 446.079 211.381H460.51C466.874 211.381 472.669 207.518 475.169 201.609L485.51 181.496C486.76 179.11 487.441 176.61 487.669 173.882L490.396 143.315L485.623 118.998L452.556 99.7939L423.125 105.93L414.83 142.179Z" fill="#F5BF00"></path>
<path d="M702.44 391.839C703.443 395.404 701.481 399.117 697.978 400.318L675.458 408.039C670.939 409.589 665.98 407.472 663.973 403.136L650.592 374.225C649.219 370.011 691.895 356.104 693.268 360.317C695.199 366.242 699.866 382.692 702.44 391.839Z" fill="#75E0E6"></path>
<path fill-rule="evenodd" clip-rule="evenodd" d="M690.016 365.192C689.934 365.054 689.757 365.009 689.619 365.091C683.45 368.765 674.893 371.556 667.86 373.43C664.347 374.366 661.221 375.071 658.974 375.543C657.85 375.778 656.946 375.955 656.324 376.074C656.012 376.133 655.771 376.177 655.608 376.207C655.527 376.221 655.465 376.232 655.423 376.24L655.376 376.248L655.362 376.251C655.362 376.251 655.361 376.251 655.41 376.536C655.46 376.822 655.46 376.822 655.46 376.822L655.476 376.819L655.524 376.81C655.567 376.803 655.629 376.792 655.712 376.777C655.876 376.747 656.119 376.702 656.432 376.643C657.058 376.524 657.965 376.346 659.093 376.11C661.348 375.637 664.484 374.929 668.009 373.99C675.052 372.113 683.674 369.306 689.916 365.589C690.053 365.507 690.098 365.329 690.016 365.192ZM655.125 376.586C655.152 376.743 655.303 376.849 655.46 376.822L655.41 376.536L655.362 376.251C655.204 376.278 655.098 376.428 655.125 376.586Z" fill="#474239"></path>
<path d="M452.669 196.836H454.26C455.965 196.836 457.442 195.927 458.351 194.564L463.578 185.7C463.578 185.7 447.329 187.632 444.033 186.382L448.465 194.45C449.374 195.927 450.965 196.836 452.669 196.836Z" fill="white"></path>
<path d="M471.419 153.314C472.925 153.314 474.146 152.195 474.146 150.814C474.146 149.434 472.925 148.314 471.419 148.314C469.912 148.314 468.691 149.434 468.691 150.814C468.691 152.195 469.912 153.314 471.419 153.314Z" fill="#333333"></path>
<path d="M435.628 153.314C437.134 153.314 438.355 152.195 438.355 150.814C438.355 149.434 437.134 148.314 435.628 148.314C434.121 148.314 432.9 149.434 432.9 150.814C432.9 152.195 434.121 153.314 435.628 153.314Z" fill="#333333"></path>
<path d="M422.557 125.702C422.443 121.384 425.966 117.748 430.284 117.861C438.352 117.975 450.056 118.543 453.92 121.157C456.647 122.975 459.942 125.929 462.669 128.656C465.283 131.27 469.828 129.452 469.942 125.816C469.942 124.679 469.942 123.657 469.715 122.975C469.715 122.975 471.874 125.816 473.919 129.338C476.078 132.974 481.873 131.611 481.873 127.293C481.873 127.179 481.873 127.066 481.873 127.066C481.873 127.066 485.964 151.837 489.6 152.519C489.6 152.519 498.805 141.951 500.623 129.225C502.782 113.089 496.532 93.6576 483.351 88.3168C455.283 76.8399 432.102 91.2713 425.398 96.7257C425.398 96.7257 406.08 92.8622 405.285 108.657C404.944 114.566 404.035 131.838 405.967 139.111C409.148 151.156 415.966 152.406 415.966 152.406L418.466 148.542C421.421 143.997 423.012 138.656 422.784 133.202L422.557 125.702Z" fill="#2249B3"></path>
<path fill-rule="evenodd" clip-rule="evenodd" d="M351.525 371.453C353.742 367.931 358.394 366.874 361.915 369.091L365.938 371.624L375.197 382.365C377.914 385.517 377.562 390.274 374.41 392.991C371.259 395.708 366.501 395.356 363.784 392.204L355.999 383.173L353.886 381.842C350.365 379.625 349.308 374.974 351.525 371.453Z" fill="#F5BF00"></path>
<path fill-rule="evenodd" clip-rule="evenodd" d="M363.2 363.254C365.488 359.778 370.161 358.816 373.636 361.105L379.521 364.981L391.945 383.008C394.306 386.434 393.443 391.125 390.017 393.487C386.591 395.848 381.899 394.985 379.538 391.558L368.781 375.95L365.348 373.69C361.873 371.401 360.911 366.729 363.2 363.254Z" fill="#F5BF00"></path>
<path fill-rule="evenodd" clip-rule="evenodd" d="M373.972 357.866C376.037 354.253 380.639 352.998 384.252 355.062L392.725 359.904L411.715 384.627C414.25 387.927 413.63 392.657 410.33 395.192C407.03 397.726 402.3 397.106 399.765 393.806L382.62 371.485L376.776 368.145C373.163 366.081 371.908 361.479 373.972 357.866Z" fill="#F5BF00"></path>
<path fill-rule="evenodd" clip-rule="evenodd" d="M515.473 371.278C516.468 375.211 514.086 379.206 510.153 380.201L503.422 381.904L499.65 387.442C497.366 390.795 492.797 391.662 489.444 389.378C486.091 387.094 485.224 382.525 487.508 379.172L494.417 369.028L506.549 365.959C510.482 364.963 514.478 367.345 515.473 371.278Z" fill="#D7A441"></path>
<path fill-rule="evenodd" clip-rule="evenodd" d="M383.069 352.713C385.344 349.229 390.012 348.247 393.497 350.522L415.839 365.103L431 381.212C433.852 384.242 433.708 389.01 430.678 391.862C427.648 394.714 422.879 394.569 420.028 391.539L406.099 376.74L385.261 363.14C381.777 360.866 380.795 356.198 383.069 352.713Z" fill="#F5BF00"></path>
<path fill-rule="evenodd" clip-rule="evenodd" d="M545.286 350.335C547.18 354.04 545.711 358.579 542.006 360.472L523.171 370.097L512.343 387.318C510.128 390.841 505.477 391.901 501.955 389.686C498.432 387.471 497.372 382.82 499.587 379.298L512.622 358.566L535.149 347.054C538.854 345.161 543.393 346.63 545.286 350.335Z" fill="#F5BF00"></path>
<path fill-rule="evenodd" clip-rule="evenodd" d="M555.296 352.642C557.609 356.101 556.68 360.78 553.222 363.093L536.632 374.189L521.763 392.097C519.104 395.299 514.354 395.739 511.153 393.081C507.952 390.423 507.511 385.673 510.169 382.472L526.436 362.881L544.845 350.568C548.303 348.255 552.982 349.184 555.296 352.642Z" fill="#F5BF00"></path>
<path fill-rule="evenodd" clip-rule="evenodd" d="M563.078 360.228C565.344 363.718 564.351 368.384 560.861 370.65L555.205 374.321L537.114 394.276C534.319 397.359 529.555 397.592 526.472 394.797C523.389 392.003 523.156 387.238 525.951 384.155L545.358 362.748L552.657 358.01C556.147 355.745 560.813 356.738 563.078 360.228Z" fill="#F5BF00"></path>
<path fill-rule="evenodd" clip-rule="evenodd" d="M565.414 366.064C569.289 367.58 571.201 371.951 569.684 375.826L566.943 382.831L550.143 397.018C546.964 399.702 542.211 399.301 539.526 396.122C536.841 392.943 537.242 388.19 540.421 385.505L554.303 373.783L555.652 370.335C557.168 366.46 561.539 364.548 565.414 366.064Z" fill="#F5BF00"></path>
<path d="M483.352 87.9758C484.602 87.7485 506.76 99.9072 508.123 106.725H501.646C501.646 106.725 506.192 113.998 506.192 117.975L493.692 111.498L483.352 87.9758Z" fill="#2249B3"></path>
<mask id="mask0" mask-type="alpha" maskUnits="userSpaceOnUse" x="444" y="185" width="20" height="12">
<path d="M452.669 196.836H454.26C455.965 196.836 457.442 195.927 458.351 194.564L463.578 185.7C463.578 185.7 447.329 187.632 444.033 186.382L448.465 194.45C449.374 195.927 450.965 196.836 452.669 196.836Z" fill="white"></path>
</mask>
<g mask="url(#mask0)">
<path fill-rule="evenodd" clip-rule="evenodd" d="M442.954 188.938C442.824 188.843 442.642 188.871 442.547 189.001C442.452 189.13 442.479 189.313 442.609 189.408L442.782 189.174C442.609 189.408 442.609 189.408 442.609 189.408L442.611 189.41L442.613 189.412L442.621 189.417C442.627 189.421 442.635 189.427 442.646 189.434C442.667 189.448 442.697 189.468 442.737 189.492C442.816 189.54 442.934 189.606 443.094 189.684C443.415 189.841 443.907 190.046 444.604 190.249C445.998 190.656 448.213 191.056 451.532 191.056C453.374 191.056 456.434 190.684 459.016 190.315C460.311 190.13 461.492 189.945 462.349 189.806C462.777 189.737 463.125 189.679 463.366 189.638C463.486 189.618 463.579 189.602 463.643 189.591L463.74 189.575C463.74 189.575 463.74 189.575 463.69 189.287L463.74 189.575C463.899 189.547 464.005 189.396 463.978 189.237C463.95 189.079 463.799 188.972 463.641 189L463.545 189.016C463.482 189.027 463.389 189.043 463.269 189.063C463.029 189.103 462.683 189.161 462.255 189.23C461.401 189.368 460.224 189.553 458.933 189.737C456.345 190.107 453.326 190.473 451.532 190.473C448.26 190.473 446.1 190.078 444.767 189.689C444.1 189.495 443.64 189.302 443.35 189.16C443.205 189.089 443.103 189.031 443.039 188.992C443.006 188.973 442.984 188.958 442.97 188.949L442.956 188.939L442.954 188.938Z" fill="#DCDCDC"></path>
</g>
<path fill-rule="evenodd" clip-rule="evenodd" d="M414.003 147.668C414.737 146.647 416.16 146.414 417.181 147.148L420.818 149.762C421.839 150.496 422.072 151.919 421.338 152.941C420.604 153.962 419.18 154.195 418.159 153.461L414.523 150.847C413.501 150.113 413.268 148.69 414.003 147.668Z" fill="#333333"></path>
<path fill-rule="evenodd" clip-rule="evenodd" d="M493.845 148.078C494.353 149.229 493.831 150.573 492.68 151.081L488.817 152.785C487.666 153.293 486.321 152.772 485.814 151.621C485.306 150.47 485.827 149.125 486.978 148.618L490.842 146.913C491.992 146.405 493.337 146.927 493.845 148.078Z" fill="#333333"></path>
<path d="M484.715 159.678H464.034C462.898 159.678 461.875 158.769 461.875 157.519V146.951C461.875 145.815 462.784 144.792 464.034 144.792H484.715C485.851 144.792 486.874 145.701 486.874 146.951V157.519C486.874 158.655 485.851 159.678 484.715 159.678Z" fill="#C9F8FF" fill-opacity="0.26"></path>
<path fill-rule="evenodd" clip-rule="evenodd" d="M464.32 147.236V157.234H484.431V147.236H464.32ZM459.432 146.951C459.432 144.549 461.352 142.348 464.035 142.348H484.716C487.117 142.348 489.319 144.268 489.319 146.951V157.518C489.319 160.005 487.202 162.121 484.716 162.121H464.035C461.633 162.121 459.432 160.201 459.432 157.518V146.951Z" fill="#333333"></path>
<path d="M443.014 159.678H422.333C421.197 159.678 420.174 158.769 420.174 157.519V146.951C420.174 145.815 421.083 144.792 422.333 144.792H443.014C444.15 144.792 445.173 145.701 445.173 146.951V157.519C445.059 158.655 444.15 159.678 443.014 159.678Z" fill="#C9F8FF" fill-opacity="0.26"></path>
<path fill-rule="evenodd" clip-rule="evenodd" d="M422.618 147.236V157.234H442.73V147.236H422.618ZM417.73 146.951C417.73 144.549 419.651 142.348 422.333 142.348H443.015C445.416 142.348 447.618 144.268 447.618 146.951V157.64L447.605 157.762C447.398 159.839 445.694 162.121 443.015 162.121H422.333C419.932 162.121 417.73 160.201 417.73 157.518V146.951Z" fill="#333333"></path>
<path fill-rule="evenodd" clip-rule="evenodd" d="M447.111 133.852C447.254 135.928 445.688 137.727 443.613 137.87L422.25 139.347C420.174 139.491 418.375 137.925 418.232 135.849C418.088 133.774 419.654 131.975 421.73 131.831L443.093 130.354C445.168 130.21 446.967 131.777 447.111 133.852Z" fill="#333333"></path>
<path fill-rule="evenodd" clip-rule="evenodd" d="M460.618 133.599C460.776 131.524 462.586 129.97 464.66 130.128L484.091 131.605C486.166 131.763 487.72 133.573 487.562 135.647C487.404 137.722 485.595 139.276 483.52 139.118L464.089 137.641C462.015 137.483 460.461 135.673 460.618 133.599Z" fill="#333333"></path>
<path fill-rule="evenodd" clip-rule="evenodd" d="M482.189 187.091C482.343 187.137 482.432 187.299 482.386 187.453L482.106 187.371L481.826 187.289C481.872 187.134 482.034 187.046 482.189 187.091ZM460.813 211.954L452.037 211.954C451.876 211.962 451.739 211.838 451.731 211.677C451.723 211.517 451.847 211.38 452.008 211.371L460.807 211.37L460.819 211.37C464.23 211.474 467.245 210.05 469.862 207.824C472.481 205.597 474.685 202.578 476.462 199.53C478.238 196.484 479.58 193.422 480.478 191.121C480.927 189.97 481.264 189.011 481.489 188.34C481.602 188.004 481.686 187.74 481.743 187.561C481.771 187.472 481.792 187.403 481.806 187.357L481.821 187.305L481.825 187.293L481.826 187.289C481.826 187.289 481.826 187.289 482.106 187.371C482.386 187.453 482.386 187.453 482.386 187.453L482.385 187.459L482.38 187.473L482.364 187.527C482.35 187.574 482.328 187.645 482.299 187.736C482.242 187.918 482.157 188.186 482.043 188.525C481.815 189.204 481.474 190.172 481.022 191.333C480.117 193.652 478.762 196.743 476.966 199.824C475.172 202.902 472.928 205.982 470.24 208.269C467.553 210.555 464.405 212.06 460.813 211.954Z" fill="#2249B3"></path>
<path fill-rule="evenodd" clip-rule="evenodd" d="M400.771 284.97C401.285 282.193 403.952 280.358 406.729 280.871C439.351 286.902 473.249 287.367 506.033 282.34C508.825 281.912 511.435 283.828 511.863 286.62C512.291 289.411 510.375 292.021 507.583 292.449C473.679 297.648 438.628 297.169 404.87 290.928C402.093 290.414 400.258 287.747 400.771 284.97Z" fill="#75E0E6"></path>
<path fill-rule="evenodd" clip-rule="evenodd" d="M507.465 310.897C508.01 313.668 506.205 316.356 503.434 316.901C473.617 322.761 442.254 323.026 412.195 317.743C409.414 317.254 407.555 314.603 408.044 311.821C408.533 309.04 411.184 307.182 413.966 307.67C442.799 312.739 472.893 312.481 501.462 306.866C504.233 306.321 506.921 308.126 507.465 310.897Z" fill="#75E0E6"></path>
<path fill-rule="evenodd" clip-rule="evenodd" d="M287.277 416.658C287.277 415.995 287.815 415.457 288.478 415.457H398.702C399.365 415.457 399.903 415.995 399.903 416.658C399.903 417.321 399.365 417.859 398.702 417.859H288.478C287.815 417.859 287.277 417.321 287.277 416.658Z" fill="#75E0E6"></path>
<path fill-rule="evenodd" clip-rule="evenodd" d="M189.24 459.07H771.779V487.991H189.24V459.07ZM191.571 461.401V485.66H769.448V461.401H191.571Z" fill="#2249B3"></path>
<path fill-rule="evenodd" clip-rule="evenodd" d="M204.272 499.356C200.46 499.356 197.37 502.447 197.37 506.259C197.37 510.071 200.46 513.161 204.272 513.161C208.085 513.161 211.175 510.071 211.175 506.259C211.175 502.447 208.085 499.356 204.272 499.356ZM195.039 506.259C195.039 501.159 199.173 497.025 204.272 497.025C209.372 497.025 213.506 501.159 213.506 506.259C213.506 511.358 209.372 515.492 204.272 515.492C199.173 515.492 195.039 511.358 195.039 506.259Z" fill="#2249B3"></path>
<path fill-rule="evenodd" clip-rule="evenodd" d="M231.206 499.356C227.394 499.356 224.304 502.447 224.304 506.259C224.304 510.071 227.394 513.161 231.206 513.161C235.018 513.161 238.108 510.071 238.108 506.259C238.108 502.447 235.018 499.356 231.206 499.356ZM221.973 506.259C221.973 501.159 226.107 497.025 231.206 497.025C236.305 497.025 240.439 501.159 240.439 506.259C240.439 511.358 236.305 515.492 231.206 515.492C226.107 515.492 221.973 511.358 221.973 506.259Z" fill="#2249B3"></path>
<path fill-rule="evenodd" clip-rule="evenodd" d="M258.02 499.356C254.208 499.356 251.118 502.447 251.118 506.259C251.118 510.071 254.208 513.161 258.02 513.161C261.833 513.161 264.923 510.071 264.923 506.259C264.923 502.447 261.833 499.356 258.02 499.356ZM248.787 506.259C248.787 501.159 252.921 497.025 258.02 497.025C263.12 497.025 267.254 501.159 267.254 506.259C267.254 511.358 263.12 515.492 258.02 515.492C252.921 515.492 248.787 511.358 248.787 506.259Z" fill="#2249B3"></path>
<path fill-rule="evenodd" clip-rule="evenodd" d="M284.837 499.356C281.025 499.356 277.934 502.447 277.934 506.259C277.934 510.071 281.025 513.161 284.837 513.161C288.649 513.161 291.739 510.071 291.739 506.259C291.739 502.447 288.649 499.356 284.837 499.356ZM275.604 506.259C275.604 501.159 279.737 497.025 284.837 497.025C289.936 497.025 294.07 501.159 294.07 506.259C294.07 511.358 289.936 515.492 284.837 515.492C279.737 515.492 275.604 511.358 275.604 506.259Z" fill="#2249B3"></path>
<path fill-rule="evenodd" clip-rule="evenodd" d="M736.368 268.538C736.368 272.993 732.756 276.606 728.3 276.606C723.844 276.606 720.232 272.993 720.232 268.538C720.232 264.082 723.844 260.47 728.3 260.47C732.756 260.47 736.368 264.082 736.368 268.538ZM709.435 268.538C709.435 272.994 705.823 276.606 701.367 276.606C696.911 276.606 693.299 272.994 693.299 268.538C693.299 264.083 696.911 260.47 701.367 260.47C705.823 260.47 709.435 264.083 709.435 268.538ZM755.116 276.606C759.571 276.606 763.184 272.993 763.184 268.538C763.184 264.082 759.571 260.47 755.116 260.47C750.66 260.47 747.048 264.082 747.048 268.538C747.048 272.993 750.66 276.606 755.116 276.606ZM790 268.538C790 272.993 786.388 276.606 781.932 276.606C777.476 276.606 773.864 272.993 773.864 268.538C773.864 264.082 777.476 260.47 781.932 260.47C786.388 260.47 790 264.082 790 268.538ZM701.367 308.763C705.823 308.763 709.435 305.151 709.435 300.696C709.435 296.24 705.823 292.628 701.367 292.628C696.911 292.628 693.299 296.24 693.299 300.696C693.299 305.151 696.911 308.763 701.367 308.763ZM736.368 300.696C736.368 305.151 732.756 308.763 728.3 308.763C723.844 308.763 720.232 305.151 720.232 300.696C720.232 296.24 723.844 292.628 728.3 292.628C732.756 292.628 736.368 296.24 736.368 300.696ZM755.116 308.763C759.571 308.763 763.184 305.151 763.184 300.696C763.184 296.24 759.571 292.628 755.116 292.628C750.66 292.628 747.048 296.24 747.048 300.696C747.048 305.151 750.66 308.763 755.116 308.763ZM790 300.696C790 305.151 786.388 308.763 781.932 308.763C777.476 308.763 773.864 305.151 773.864 300.696C773.864 296.24 777.476 292.628 781.932 292.628C786.388 292.628 790 296.24 790 300.696Z" fill="#2249B3"></path>
<path d="M453.743 144.792C447.861 144.792 447.557 168.74 447.557 174.041C447.557 180.224 459.494 180.224 459.494 174.041C459.494 168.73 459.804 144.792 453.743 144.792Z" fill="#FF734B" fill-opacity="0.72"></path>
<path fill-rule="evenodd" clip-rule="evenodd" d="M118.364 473.531C118.364 477.987 114.752 481.599 110.296 481.599C105.84 481.599 102.228 477.987 102.228 473.531C102.228 469.075 105.84 465.463 110.296 465.463C114.752 465.463 118.364 469.075 118.364 473.531ZM91.5479 473.531C91.5479 477.987 87.9358 481.599 83.48 481.599C79.0242 481.599 75.4121 477.987 75.4121 473.531C75.4121 469.075 79.0242 465.463 83.48 465.463C87.9358 465.463 91.5479 469.075 91.5479 473.531ZM137.116 481.599C141.572 481.599 145.184 477.987 145.184 473.531C145.184 469.075 141.572 465.463 137.116 465.463C132.66 465.463 129.048 469.075 129.048 473.531C129.048 477.987 132.66 481.599 137.116 481.599ZM172.114 473.531C172.114 477.987 168.502 481.599 164.046 481.599C159.59 481.599 155.978 477.987 155.978 473.531C155.978 469.075 159.59 465.463 164.046 465.463C168.502 465.463 172.114 469.075 172.114 473.531Z" fill="#205284"></path>
<path fill-rule="evenodd" clip-rule="evenodd" d="M453.469 152.475C451.685 152.475 449.786 153.062 447.735 154.43C446.554 155.217 444.959 154.898 444.172 153.717C443.385 152.536 443.704 150.941 444.885 150.154C447.607 148.339 450.48 147.336 453.469 147.336C456.457 147.336 459.331 148.339 462.053 150.154C463.234 150.941 463.553 152.536 462.766 153.717C461.978 154.898 460.383 155.217 459.202 154.43C457.152 153.062 455.253 152.475 453.469 152.475Z" fill="#333333"></path>
<path d="M643.833 425.609C637.929 423.079 629.284 422.868 625.699 423.079C621.482 420.549 637.296 420.548 646.363 419.494C655.43 418.44 672.72 420.759 673.985 423.079C675.251 425.398 667.66 423.079 666.605 425.609C665.551 428.139 651.213 428.772 643.833 425.609Z" fill="#FDFF9A"></path>
<g style="mix-blend-mode:multiply" opacity="0.7">
<path d="M720.192 422.088C720.192 422.863 704.254 423.49 684.595 423.49C664.935 423.49 648.998 422.863 648.998 422.088C648.998 421.314 664.935 420.687 684.595 420.687C704.254 420.687 720.192 421.314 720.192 422.088Z" fill="#858585"></path>
</g>
<path fill-rule="evenodd" clip-rule="evenodd" d="M420.373 215.383C423.18 215.694 425.203 218.221 424.893 221.028C424.703 222.746 425.303 226.099 427.498 229.851C429.619 233.476 432.988 237.034 437.673 239.366C448.692 244.85 461.199 244.444 471.586 239.352C479.238 235.601 481.711 229.23 481.711 222.422C481.711 219.598 484 217.309 486.824 217.309C489.648 217.309 491.937 219.598 491.937 222.422C491.937 232.049 488.121 242.636 476.088 248.535C463.01 254.946 447.149 255.506 433.117 248.522C426.448 245.203 421.677 240.152 418.672 235.016C415.74 230.007 414.225 224.446 414.728 219.903C415.038 217.096 417.566 215.072 420.373 215.383Z" fill="#75E0E6"></path>
<path fill-rule="evenodd" clip-rule="evenodd" d="M431.238 147.69C431.991 148.294 432.112 149.395 431.507 150.147L426.969 155.799C426.364 156.552 425.264 156.673 424.511 156.068C423.758 155.464 423.638 154.363 424.243 153.61L428.781 147.958C429.385 147.206 430.486 147.085 431.238 147.69ZM441.928 147.69C442.681 148.294 442.801 149.395 442.197 150.147L437.659 155.799C437.054 156.552 435.954 156.673 435.201 156.068C434.448 155.464 434.328 154.363 434.932 153.61L439.47 147.958C440.075 147.206 441.175 147.085 441.928 147.69Z" fill="white" fill-opacity="0.51"></path>
<path fill-rule="evenodd" clip-rule="evenodd" d="M472.705 147.69C473.458 148.294 473.578 149.395 472.974 150.147L468.436 155.799C467.831 156.552 466.731 156.673 465.978 156.068C465.225 155.464 465.105 154.363 465.709 153.61L470.248 147.958C470.852 147.206 471.952 147.085 472.705 147.69ZM483.395 147.69C484.148 148.294 484.268 149.395 483.664 150.147L479.125 155.799C478.521 156.552 477.42 156.673 476.668 156.068C475.915 155.464 475.795 154.363 476.399 153.61L480.937 147.958C481.542 147.206 482.642 147.085 483.395 147.69Z" fill="white" fill-opacity="0.51"></path>
<path d="M310.885 205.419C294.018 205.419 291.501 215.74 291.501 223.041C291.501 229.586 292.508 235.88 293.515 242.425C294.522 248.97 295.529 255.515 295.529 262.061C295.529 286.228 280.424 294.787 260.788 294.787H255.754V281.697H259.782C273.124 281.445 278.914 274.396 278.914 260.802C278.914 255.012 277.907 249.474 277.152 243.684C276.145 237.893 275.138 232.103 275.138 225.558C275.138 210.202 281.935 202.146 292.256 199.377V198.874C281.683 196.104 275.138 188.3 275.138 172.944C275.138 166.399 276.145 160.861 277.152 154.819C277.907 149.029 278.914 143.239 278.914 137.952C278.914 125.113 273.879 117.561 260.033 117.309H255.502V104.219H260.285C280.676 104.219 295.277 113.533 295.277 135.435C295.277 142.232 294.27 148.525 293.263 155.322C292.256 162.119 291.249 168.665 291.249 175.462C291.249 183.769 293.767 193.084 310.633 193.084V205.419H310.885Z" fill="#2249B3"></path>
<path d="M90.6286 299.849C107.495 299.849 110.013 310.17 110.013 317.47C110.013 324.016 109.006 330.309 107.999 336.855C106.992 343.4 105.985 349.945 105.985 356.49C105.985 380.658 121.089 389.217 140.725 389.217H145.76V376.126H141.732C128.39 375.875 122.6 368.826 122.6 355.232C122.6 349.442 123.607 343.903 124.362 338.113C125.369 332.323 126.376 326.533 126.376 319.988C126.376 304.632 119.579 296.576 109.258 293.807V293.303C119.831 290.534 126.376 282.73 126.376 267.374C126.376 260.829 125.369 255.29 124.362 249.249C123.607 243.458 122.6 237.668 122.6 232.382C122.6 219.543 127.635 211.991 141.48 211.739H146.012V198.648H141.229C120.838 198.648 106.237 207.963 106.237 229.864C106.237 236.661 107.244 242.955 108.25 249.752C109.257 256.549 110.264 263.094 110.264 269.891C110.264 278.199 107.747 287.513 90.8803 287.513V299.849H90.6286Z" fill="#2249B3"></path>
<path d="M689.719 361.171C689.543 360.631 681.232 362.264 671.4 365.468C664.451 367.732 658.578 370.183 655.793 371.617C654.638 372.212 654.015 372.631 654.066 372.79C654.108 372.917 654.591 372.887 655.433 372.726C658.162 372.202 664.663 370.292 672.174 367.844C682.006 364.641 689.896 361.711 689.719 361.171Z" fill="#474239"></path>
<path d="M655.793 371.617C654.638 372.212 654.015 372.631 654.066 372.79C654.108 372.917 654.591 372.887 655.433 372.726C654.508 373.127 652.5 374.017 651.865 374.363C651.071 374.796 651.865 383.589 651.865 389.205C651.865 394.32 650.581 398.531 648.776 395.355C646.972 392.179 649.194 375.301 649.628 373.93C649.974 372.833 653.882 371.931 655.793 371.617Z" fill="#474239"></path>
<path d="M649.628 400.525C648.898 402.991 647.707 408.475 648.776 410.686C650.113 413.449 651.865 411.132 651.865 408.101C651.865 405.071 650.479 401.149 649.628 400.525Z" fill="#474239"></path>
<path d="M642.313 422.525C645.941 423.759 654.127 425.805 657.842 424.122C660.503 424.073 664.968 423.686 661.543 422.525C657.261 421.074 638.322 419.478 642.313 422.525Z" fill="#474239"></path>
<path fill-rule="evenodd" clip-rule="evenodd" d="M497.257 152.213C496.649 152.004 495.985 152.327 495.775 152.935L494.294 157.233L495.258 157.671L495.263 157.674L495.288 157.685C495.312 157.696 495.347 157.713 495.394 157.736C495.486 157.781 495.622 157.848 495.785 157.934C496.114 158.106 496.545 158.348 496.969 158.631C497.402 158.92 497.784 159.222 498.046 159.507C498.298 159.782 498.323 159.915 498.325 159.915C498.325 159.915 498.325 159.915 498.325 159.915C498.325 159.913 498.325 159.91 498.325 159.906M498.325 159.915C498.324 160.538 498.157 160.822 498.035 160.959C497.899 161.111 497.686 161.228 497.374 161.294C497.06 161.361 496.717 161.36 496.432 161.334C496.295 161.321 496.181 161.304 496.106 161.291C496.068 161.284 496.041 161.278 496.025 161.275L496.011 161.272C495.387 161.124 494.76 161.507 494.608 162.131C494.457 162.757 494.841 163.387 495.466 163.538L495.73 162.451C495.466 163.538 495.467 163.539 495.467 163.539L495.468 163.539L495.471 163.54L495.477 163.541L495.493 163.545C495.505 163.548 495.522 163.551 495.541 163.555C495.58 163.564 495.633 163.574 495.698 163.586C495.828 163.609 496.007 163.636 496.221 163.655C496.64 163.693 497.235 163.706 497.858 163.574C498.483 163.442 499.208 163.146 499.775 162.51C500.355 161.86 500.656 160.981 500.656 159.906C500.656 159.065 500.178 158.384 499.764 157.932C499.322 157.45 498.767 157.028 498.262 156.692C497.878 156.436 497.497 156.212 497.173 156.033L497.979 153.695C498.189 153.087 497.866 152.423 497.257 152.213" fill="#333333"></path>
<defs>
<filter id="filter0_i" x="101.973" y="123.997" width="630.12" height="314.535" filterUnits="userSpaceOnUse" color-interpolation-filters="sRGB">
<feFlood flood-opacity="0" result="BackgroundImageFix"></feFlood>
<feBlend mode="normal" in="SourceGraphic" in2="BackgroundImageFix" result="shape"></feBlend>
<feColorMatrix in="SourceAlpha" type="matrix" values="0 0 0 0 0 0 0 0 0 0 0 0 0 0 0 0 0 0 127 0" result="hardAlpha"></feColorMatrix>
<feOffset dx="-1.05012"></feOffset>
<fegaussianblur stdDeviation="2.91365"></fegaussianblur>
<feComposite in2="hardAlpha" operator="arithmetic" k2="-1" k3="1"></feComposite>
<feColorMatrix type="matrix" values="0 0 0 0 0.7 0 0 0 0 0.7 0 0 0 0 0.7 0 0 0 0.2 0"></feColorMatrix>
<feBlend mode="normal" in2="shape" result="effect1_innerShadow"></feBlend>
</filter>
<filter id="filter1_i" x="150.042" y="387.397" width="599.553" height="46.3621" filterUnits="userSpaceOnUse" color-interpolation-filters="sRGB">
<feFlood flood-opacity="0" result="BackgroundImageFix"></feFlood>
<feBlend mode="normal" in="SourceGraphic" in2="BackgroundImageFix" result="shape"></feBlend>
<feColorMatrix in="SourceAlpha" type="matrix" values="0 0 0 0 0 0 0 0 0 0 0 0 0 0 0 0 0 0 127 0" result="hardAlpha"></feColorMatrix>
<feOffset dx="-1.05012"></feOffset>
<fegaussianblur stdDeviation="2.91365"></fegaussianblur>
<feComposite in2="hardAlpha" operator="arithmetic" k2="-1" k3="1"></feComposite>
<feColorMatrix type="matrix" values="0 0 0 0 0.7 0 0 0 0 0.7 0 0 0 0 0.7 0 0 0 0.2 0"></feColorMatrix>
<feBlend mode="normal" in2="shape" result="effect1_innerShadow"></feBlend>
</filter>
<filter id="filter2_d" x="614.853" y="331.975" width="155.502" height="102.386" filterUnits="userSpaceOnUse" color-interpolation-filters="sRGB">
<feFlood flood-opacity="0" result="BackgroundImageFix"></feFlood>
<feColorMatrix in="SourceAlpha" type="matrix" values="0 0 0 0 0 0 0 0 0 0 0 0 0 0 0 0 0 0 127 0"></feColorMatrix>
<feOffset dy="12.3178"></feOffset>
<fegaussianblur stdDeviation="12.3178"></fegaussianblur>
<feColorMatrix type="matrix" values="0 0 0 0 0 0 0 0 0 0 0 0 0 0 0 0 0 0 0.15 0"></feColorMatrix>
<feBlend mode="normal" in2="BackgroundImageFix" result="effect1_dropShadow"></feBlend>
<feBlend mode="normal" in="SourceGraphic" in2="effect1_dropShadow" result="shape"></feBlend>
</filter>
</defs>
</svg>
